<?xml version="1.0" encoding="utf-8"?>
<!-- Generator: Adobe Illustrator 15.0.2, SVG Export Plug-In . SVG Version: 6.00 Build 0)  -->
<!DOCTYPE svg PUBLIC "-//W3C//DTD SVG 1.1//EN" "http://www.w3.org/Graphics/SVG/1.1/DTD/svg11.dtd">
<svg version="1.1" id="Layer_1" xmlns="http://www.w3.org/2000/svg" xmlns:xlink="http://www.w3.org/1999/xlink" x="0px" y="0px"
	 width="792px" height="612px" viewBox="0 0 792 612" enable-background="new 0 0 792 612" xml:space="preserve">
<g>
	<g>
		<path d="M504.856,194.186c-20.523,0-38.08,6.702-52.659,20.11c-14.568,13.403-21.854,31.484-21.854,54.222
			c0,22.743,6.871,41.004,20.635,54.757C464.742,337.034,481.42,343.91,501,343.91c26.816,0,48.749-10.616,65.771-31.839
			l17.636,18.166V209.163l-15.184,17.212C551.959,204.909,530.508,194.186,504.856,194.186z"/>
		<path d="M223.714,160.948c16.672-12.587,37.497-18.897,62.45-18.897c16.33,0,32.658,2.818,48.982,8.397
			c16.317,5.605,30.547,13.525,42.681,23.787l-27.646,39.892c-21.228-16.089-43.145-24.131-65.771-24.131
			c-9.093,0-16.267,2.151-21.503,6.468c-5.248,4.307-7.87,10.013-7.87,17.128c0,7.125,3.2,12.783,9.615,16.979
			c6.41,4.201,21.218,9.139,44.427,14.855c23.207,5.722,41.211,14.293,54.058,25.726c3.343,2.993,6.164,6.399,8.609,10.129
			l145.57-201.462H206.974V179.93C211.05,172.646,216.626,166.31,223.714,160.948z"/>
		<path d="M487.592,142.894c4.836-0.503,9.752-0.842,14.817-0.842c31.319,0,58.635,9.361,81.998,27.993V79.819h-51.229
			L487.592,142.894z"/>
		<path d="M280.911,292.141c-28.457-6.765-49.269-15.57-62.434-26.415c-4.678-3.846-8.481-8.514-11.504-13.917v77.15l13.774-16.889
			c26.364,23.087,50.731,34.636,73.119,34.636c10.023,0,17.896-2.14,23.615-6.484c5.706-4.307,8.571-10.134,8.571-17.472
			c0-7.337-3.033-13.181-9.091-17.503C310.878,300.946,298.878,296.581,280.911,292.141z"/>
		<path d="M289.637,394.9c-29.871-0.614-57.419-9.854-82.663-27.701v90.045h37.622L289.637,394.9z"/>
		<path d="M503.633,394.991c-37.662,0-68.695-11.894-93.049-35.686c-17.989-17.536-29.228-38.536-33.948-62.863L260.451,457.244
			h323.956v-92.217C560.637,384.989,533.729,394.991,503.633,394.991z"/>
	</g>
	<path d="M616.866,489.703H174.512V47.349h442.354V489.703z M180.933,483.283H610.44V53.765H180.933V483.283z"/>
</g>
<g>
	<path d="M193.094,522.603c-2.379,0-4.323,0.482-5.846,1.44c-1.526,0.98-2.289,2.438-2.289,4.397c0,1.966,0.763,3.465,2.289,4.503
		c1.523,1.033,4.76,2.156,9.719,3.354c4.958,1.197,8.699,2.882,11.212,5.06c2.514,2.161,3.772,5.361,3.772,9.578
		s-1.592,7.645-4.778,10.277c-3.179,2.628-7.359,3.942-12.521,3.942c-7.57,0-14.283-2.612-20.139-7.825l5.118-6.156
		c4.892,4.243,9.968,6.368,15.226,6.368c2.627,0,4.715-0.557,6.265-1.695c1.544-1.123,2.318-2.633,2.318-4.498
		c0-1.875-0.729-3.321-2.18-4.354c-1.454-1.038-3.958-1.986-7.507-2.84c-3.558-0.858-6.257-1.642-8.1-2.352
		c-1.847-0.721-3.483-1.658-4.911-2.808c-2.866-2.167-4.291-5.489-4.291-9.96c0-4.477,1.626-7.926,4.876-10.353
		c3.255-2.421,7.276-3.629,12.076-3.629c3.094,0,6.161,0.509,9.205,1.516c3.046,1.022,5.677,2.453,7.891,4.297l-4.36,6.161
		c-1.431-1.293-3.37-2.357-5.814-3.185C197.877,523.011,195.461,522.603,193.094,522.603z"/>
	<path d="M239.631,523.704v40.898h-8.164v-40.898h-14.672v-7.475h37.511v7.475H239.631z"/>
	<path d="M263.998,553.6l-4.845,11.003h-8.72l21.315-48.373h8.717l21.318,48.373h-8.72l-4.845-11.003H263.998z M284.9,546.056
		l-8.789-19.936l-8.794,19.936H284.9z"/>
	<path d="M346.417,531.938c0,7.978-3.486,13.006-10.453,15.093l12.667,17.572h-10.381l-11.554-16.264h-10.728v16.264h-8.164v-48.373
		h17.994c7.377,0,12.662,1.245,15.846,3.74C344.828,522.454,346.417,526.448,346.417,531.938z M335.555,538.792
		c1.658-1.43,2.49-3.729,2.49-6.887s-0.853-5.335-2.559-6.511c-1.708-1.176-4.757-1.765-9.138-1.765h-10.378v17.303h10.172
		C330.758,540.933,333.894,540.223,335.555,538.792z"/>
	<path d="M396.107,531.938c0,7.978-3.483,13.006-10.452,15.093l12.667,17.572h-10.379l-11.562-16.264h-10.725v16.264h-8.161v-48.373
		h17.988c7.38,0,12.667,1.245,15.848,3.74C394.516,522.454,396.107,526.448,396.107,531.938z M385.242,538.792
		c1.66-1.43,2.489-3.729,2.489-6.887s-0.853-5.335-2.561-6.511s-4.75-1.765-9.13-1.765h-10.384v17.303h10.174
		C380.442,540.933,383.584,540.223,385.242,538.792z"/>
	<path d="M447.524,557.202c2.818,0,5.239-0.472,7.269-1.431c2.029-0.938,4.153-2.447,6.368-4.529l5.255,5.403
		c-5.117,5.674-11.337,8.509-18.647,8.509c-7.316,0-13.382-2.348-18.203-7.052c-4.821-4.71-7.231-10.659-7.231-17.864
		c0-7.194,2.458-13.191,7.369-17.996c4.916-4.8,11.12-7.189,18.616-7.189c7.501,0,13.764,2.771,18.786,8.302l-5.188,5.68
		c-2.304-2.215-4.486-3.767-6.537-4.636c-2.05-0.88-4.466-1.313-7.231-1.313c-4.89,0-8.995,1.578-12.322,4.735
		c-3.316,3.158-4.979,7.2-4.979,12.105c0,4.911,1.652,9.022,4.947,12.328C439.091,555.544,443,557.202,447.524,557.202z"/>
	<path d="M482.543,553.6l-4.843,11.003h-8.72l21.312-48.373h8.715l21.318,48.373h-8.721l-4.842-11.003H482.543z M503.441,546.056
		l-8.788-19.936l-8.794,19.936H503.441z"/>
	<path d="M564.965,531.938c0,7.978-3.486,13.006-10.447,15.093l12.661,17.572h-10.384l-11.554-16.264h-10.728v16.264h-8.164v-48.373
		h17.996c7.375,0,12.662,1.245,15.84,3.74C563.37,522.454,564.965,526.448,564.965,531.938z M554.104,538.792
		c1.658-1.43,2.49-3.729,2.49-6.887s-0.857-5.335-2.563-6.511s-4.753-1.765-9.134-1.765h-10.383v17.303h10.171
		C549.305,540.933,552.44,540.223,554.104,538.792z"/>
	<path d="M614.657,531.938c0,7.978-3.486,13.006-10.458,15.093l12.667,17.572h-10.378l-11.56-16.264h-10.723v16.264h-8.169v-48.373
		h17.99c7.386,0,12.667,1.245,15.852,3.74C613.057,522.454,614.657,526.448,614.657,531.938z M603.786,538.792
		c1.663-1.43,2.49-3.729,2.49-6.887s-0.848-5.335-2.56-6.511c-1.711-1.176-4.752-1.765-9.133-1.765h-10.378v17.303h10.171
		C598.986,540.933,602.128,540.223,603.786,538.792z"/>
</g>
</svg>
